<svg xmlns="http://www.w3.org/2000/svg" xmlns:xlink="http://www.w3.org/1999/xlink" width="64.888" height="64.888" viewBox="0 0 64.888 64.888">
  <defs>
    <clipPath id="clip-path">
      <rect id="Rectángulo_38088" data-name="Rectángulo 38088" width="50.238" height="50.092" fill="none"/>
    </clipPath>
  </defs>
  <g id="_81" data-name="81" transform="translate(0 -0.002)">
    <circle id="Elipse_4823" data-name="Elipse 4823" cx="32.444" cy="32.444" r="32.444" transform="translate(0 0.002)" fill="#ff9fa3"/>
    <g id="Grupo_158984" data-name="Grupo 158984" transform="translate(7 7.002)">
      <g id="Grupo_158983" data-name="Grupo 158983" clip-path="url(#clip-path)">
        <path id="Trazado_136068" data-name="Trazado 136068" d="M10.881,40.081A.808.808,0,0,1,9.768,39.8a14.216,14.216,0,0,0-5.046-4.23A8.651,8.651,0,0,1,.1,28.167c-.007-.09.029-.2-.1-.247V25.762c.126-.325-.014-.672.082-1a11.631,11.631,0,0,1,4.332-8.307A37.52,37.52,0,0,1,9.7,12.929a10,10,0,0,0,4.441-5.215,20.457,20.457,0,0,1,1.833-3.829A8.12,8.12,0,0,1,21.746.306a19.218,19.218,0,0,1,9.1.536,13.2,13.2,0,0,1,5.974,4.1c1.225,1.4,2.317,2.914,3.476,4.371a.831.831,0,0,1,.027,1.152.586.586,0,0,1-.9.147,2.669,2.669,0,0,1-.694-.685c-.969-1.233-1.91-2.488-2.913-3.7a11.955,11.955,0,0,0-8.355-4.5c-.752-.07-1.5-.068-2.25-.078a12.933,12.933,0,0,0-4.546.551A6.294,6.294,0,0,0,16.94,5.4c-.562,1.073-1.022,2.19-1.491,3.3a12.368,12.368,0,0,1-1.679,2.922,13.121,13.121,0,0,1-3.453,2.78,41.955,41.955,0,0,0-5.03,3.4A10.172,10.172,0,0,0,1.7,24.558a15.527,15.527,0,0,0,.2,4.773,6.521,6.521,0,0,0,2.966,4.426c.905.586,1.847,1.112,2.754,1.7A13.665,13.665,0,0,1,11.1,38.928a.717.717,0,0,1-.217,1.153" transform="translate(0 0)"/>
        <path id="Trazado_136069" data-name="Trazado 136069" d="M44.023,69.932A13.808,13.808,0,0,1,35.94,66.4a32.375,32.375,0,0,1-3.558-3.693.847.847,0,0,1-.122-1.145.777.777,0,0,1,1.224-.01c.554.6,1.1,1.209,1.641,1.814a17.008,17.008,0,0,0,4.627,3.726,11.4,11.4,0,0,0,3.617,1.174,9.2,9.2,0,0,0,7.906-2.281c.916-.789,1.851-1.556,2.8-2.31a13.251,13.251,0,0,1,4.935-2.421,11.279,11.279,0,0,0,5.942-4.035,17.519,17.519,0,0,0,3.8-9.666,19.37,19.37,0,0,0-.766-7.6,9.637,9.637,0,0,0-3.1-4.444c-.9-.764-1.837-1.471-2.738-2.229a2.221,2.221,0,0,1-.416-.413.693.693,0,0,1,.16-1.016.756.756,0,0,1,.991-.024c1.347,1.112,2.771,2.13,4.011,3.373a11.515,11.515,0,0,1,3.131,6.244,21.082,21.082,0,0,1-1.166,12.3,15.751,15.751,0,0,1-6.989,8.105,11.364,11.364,0,0,1-2.777,1.063,11.568,11.568,0,0,0-4.611,2.48,35.1,35.1,0,0,1-4.132,3.217,9.262,9.262,0,0,1-3.9,1.317c-.068.006-.127.015-.146.093H45.118c-.357-.13-.736.019-1.1-.084" transform="translate(-20.199 -19.924)"/>
        <path id="Trazado_136070" data-name="Trazado 136070" d="M64.3,134.917a2.145,2.145,0,0,1,1.1.084H64.315a.159.159,0,0,0-.016-.084" transform="translate(-40.475 -84.91)" fill="#535353"/>
        <path id="Trazado_136071" data-name="Trazado 136071" d="M.082,66.817a1.786,1.786,0,0,1-.082,1v-.981a.058.058,0,0,1,.082-.018" transform="translate(0 -42.054)" fill="#585858"/>
        <path id="Trazado_136072" data-name="Trazado 136072" d="M81,14.5c-.316.555-.275.825.212,1.226q1.4,1.151,2.813,2.289a10.6,10.6,0,0,1,3.833,7.305,20.607,20.607,0,0,1-.182,7.07,16.269,16.269,0,0,1-5.983,9.921,10.332,10.332,0,0,1-3.821,1.808,13.313,13.313,0,0,0-5.334,2.876A31.656,31.656,0,0,1,68.678,50a8.721,8.721,0,0,1-6.228,1,28.384,28.384,0,0,0,5.182-3.834,12.21,12.21,0,0,1,4.649-2.438,13.021,13.021,0,0,0,7.857-6.016A18.7,18.7,0,0,0,82.8,31.5a21.319,21.319,0,0,0,.082-5.316,15.7,15.7,0,0,0-1.025-4.521,10.536,10.536,0,0,0-3.088-4.114c-1.212-1.021-2.518-1.932-3.656-3.038a36.123,36.123,0,0,1-3.294-3.948,32.51,32.51,0,0,0-3.091-3.606,11.718,11.718,0,0,0-3.793-2.475c-.181-.073-.436-.086-.409-.387,4.23-.115,7.856,1.174,10.621,4.519,1.124,1.36,2.179,2.773,3.279,4.151.412.515.637.563,1.215.276A9.085,9.085,0,0,0,81,14.5" transform="translate(-39.311 -2.573)" fill="#e1e1e1"/>
        <path id="Trazado_136073" data-name="Trazado 136073" d="M27.7,4.074a.373.373,0,0,0,.252.209,12.61,12.61,0,0,1,5.252,3.861c1.562,1.811,2.922,3.783,4.494,5.583a18.881,18.881,0,0,0,2.358,2.123,20.987,20.987,0,0,1,3.886,3.607,11.965,11.965,0,0,1,1.992,4.78,20.259,20.259,0,0,1,.382,4.606A18.692,18.692,0,0,1,42.335,40.3a12.946,12.946,0,0,1-7.3,4.686,10.85,10.85,0,0,0-4.124,2.251,37.561,37.561,0,0,1-4.6,3.532,1.377,1.377,0,0,1-.684.218,11.166,11.166,0,0,1-5.387-2.246,26.938,26.938,0,0,1-4.427-4.34c-.437-.512-.7-.546-1.264-.207a5.291,5.291,0,0,0-1.18-1.557c.4-.527.386-.727,0-1.253A14.156,14.156,0,0,0,8.728,37.31a16.283,16.283,0,0,1-2.013-1.3A6.6,6.6,0,0,1,4.2,31.62a14.391,14.391,0,0,1,.246-6.408,10.228,10.228,0,0,1,3.372-5.051,37.638,37.638,0,0,1,5.253-3.494,11.1,11.1,0,0,0,4.858-5.691c.372-.955.813-1.884,1.249-2.813a6.78,6.78,0,0,1,5.357-3.879A13.806,13.806,0,0,1,27.7,4.074" transform="translate(-2.489 -2.552)" fill="#eee"/>
        <path id="Trazado_136074" data-name="Trazado 136074" d="M73.057,53.735A10.166,10.166,0,1,1,62.93,43.558,10.166,10.166,0,0,1,73.057,53.735" transform="translate(-33.189 -27.419)"/>
        <path id="Trazado_136075" data-name="Trazado 136075" d="M58.313,61.173a8.675,8.675,0,0,1,11.9-12.205,1.249,1.249,0,0,1,.143.128,3.605,3.605,0,0,1,.588,1.993,10.107,10.107,0,0,1-.565,4.623,9.506,9.506,0,0,1-6.052,5.656,9.212,9.212,0,0,1-5.073.191,2.056,2.056,0,0,1-.941-.385" transform="translate(-35.717 -29.921)" fill="#fbce3f"/>
        <path id="Trazado_136076" data-name="Trazado 136076" d="M60.984,63.828a11.476,11.476,0,0,0,3.36.5,9.318,9.318,0,0,0,5.708-2.1A8.929,8.929,0,0,0,73.339,56.9a9.369,9.369,0,0,0-.166-4.633c-.052-.17-.1-.343-.146-.515a8.305,8.305,0,0,1,3.735,7.3,8.609,8.609,0,0,1-9.34,8.478,8.324,8.324,0,0,1-6.437-3.7" transform="translate(-38.388 -32.576)" fill="#eea235"/>
        <path id="Trazado_136077" data-name="Trazado 136077" d="M61.743,61a6.678,6.678,0,0,1,2.565-4.855.757.757,0,0,1,1.095-.01.739.739,0,0,1-.138,1.115,5.479,5.479,0,0,0-2.071,4.2.74.74,0,0,1-.774.769c-.456-.033-.707-.4-.677-1.219" transform="translate(-38.864 -35.195)"/>
      </g>
    </g>
  </g>
</svg>
