<svg xmlns="http://www.w3.org/2000/svg" xmlns:xlink="http://www.w3.org/1999/xlink" width="64.888" height="64.888" viewBox="0 0 64.888 64.888">
  <defs>
    <clipPath id="clip-path">
      <rect id="Rectángulo_38089" data-name="Rectángulo 38089" width="36.457" height="49.112" fill="none"/>
    </clipPath>
  </defs>
  <g id="_82" data-name="82" transform="translate(0 -0.428)">
    <circle id="Elipse_4823" data-name="Elipse 4823" cx="32.444" cy="32.444" r="32.444" transform="translate(0 0.428)" fill="#ff9fa3"/>
    <g id="Grupo_158985" data-name="Grupo 158985" transform="translate(14 7.427)">
      <g id="Grupo_158985-2" data-name="Grupo 158985" transform="translate(0 0)" clip-path="url(#clip-path)">
        <path id="Trazado_136078" data-name="Trazado 136078" d="M25.616,49.112a2.484,2.484,0,0,1-1.627-1.9c-.194-.723-.346-1.459-.584-2.167-.309-.924-.784-1.155-1.73-.953a8.63,8.63,0,0,1-3.073.337A2.585,2.585,0,0,1,16.4,42.758a.574.574,0,0,0-.367-.387,1.887,1.887,0,0,1-1.26-1.5c-.033-.165-.039-.325-.258-.41A1.76,1.76,0,0,1,13.422,39.1a.869.869,0,0,0-.431-.589A17.461,17.461,0,0,0,8.977,36.76a.512.512,0,0,0-.563.115,1.693,1.693,0,0,1-1.914.287,4.952,4.952,0,0,1-1.284-.82c-.482-.394-.959-.793-1.451-1.175A2.307,2.307,0,0,0,2.5,34.648a2.092,2.092,0,0,1-1.232-.681,3.92,3.92,0,0,1-1.2-1.752A1.252,1.252,0,0,1,.224,31.07a1.225,1.225,0,0,0,.251-.915,1.512,1.512,0,0,1,.978-1.548,3.42,3.42,0,0,1,1.347-.3,1.2,1.2,0,0,0,1.034-.582,4.181,4.181,0,0,0,.7-2.817c-.071-.768.048-.974.74-1.318a1.293,1.293,0,0,1,.836-.123q12.992,0,25.983.012a1.16,1.16,0,0,0,1.271-.743c.146-.351.369-.672.513-1.028a.918.918,0,0,0-.7-1.419,9.386,9.386,0,0,0-1.9-.191c-.464-.03-.922-.083-1.381-.144a2.232,2.232,0,0,1-1.647-1.039,8.682,8.682,0,0,0-.584-.76,2.814,2.814,0,0,0-1.93-1.04,15.09,15.09,0,0,1-3.744-.777,3.563,3.563,0,0,1-2.5-2.671,4.966,4.966,0,0,1-.056-.955,1.059,1.059,0,0,0-.5-.922,2.907,2.907,0,0,1-1.2-3.673A7.892,7.892,0,0,1,20.3,4.655a7.463,7.463,0,0,1,3.328-1.724c.351-.072.29-.24.1-.415a1.684,1.684,0,0,0-1.7-.377,4.877,4.877,0,0,0-2.088,1.138,8.858,8.858,0,0,1-3.372,1.857c-.906.315-1.83.572-2.749.845a1.079,1.079,0,0,0-.8.8,7.647,7.647,0,0,1-1.882,3.243,1.1,1.1,0,0,1-.447.354,2.026,2.026,0,0,0-1.174,1.046,3.328,3.328,0,0,1-2.416,1.564,1.556,1.556,0,0,0-1.045.62,2.871,2.871,0,0,0-.681,2.132.923.923,0,0,1-.781,1.11c-.78.1-1.161-.193-1.262-.982-.264-2.068,1.265-4.51,3.14-4.835a2.191,2.191,0,0,0,1.687-1.3A6.469,6.469,0,0,1,8.5,9.15c.179-.272.419-.578.73-.573.645.011.861-.444,1.131-.864A5.34,5.34,0,0,0,11.081,6.1,2.72,2.72,0,0,1,13.21,4.019a34.016,34.016,0,0,0,3.5-1.128A5.988,5.988,0,0,0,18.5,1.814,6.992,6.992,0,0,1,22.048.044a3.512,3.512,0,0,1,4,2.563,1.726,1.726,0,0,1-1.421,2.245A6.466,6.466,0,0,0,20.1,7.919a3.172,3.172,0,0,0-.5,1.131.806.806,0,0,0,.421,1.011,2.643,2.643,0,0,1,1.453,2.506c.054,1.285.221,1.5,1.431,1.927a10.523,10.523,0,0,0,2.762.545,5.128,5.128,0,0,1,4.039,2.408,1.12,1.12,0,0,0,.92.554c.923.069,1.851.078,2.768.229a2.887,2.887,0,0,1,2.661,3.164,4.1,4.1,0,0,1-.751,2.044,1.46,1.46,0,0,0-.1,1.679,6.131,6.131,0,0,1,.5,1.34,1.826,1.826,0,0,1-.214,1.47.643.643,0,0,0-.02.63c.279.813.682,1.577.894,2.417a2.265,2.265,0,0,1-3.013,2.72,8.767,8.767,0,0,1-1.75-.971,2.176,2.176,0,0,0-.816-.382c-.27-.042-.429,0-.3.356a3.474,3.474,0,0,1,.242,1.967,2.1,2.1,0,0,1-1.5,1.693l-.366.111c-.386.12-.506.345-.311.724a6.468,6.468,0,0,1,.66,1.838,3.572,3.572,0,0,1-.131,2.073,7.509,7.509,0,0,0-.444,3.714,8.148,8.148,0,0,1-.014,1.912,2.506,2.506,0,0,1-2.034,2.3c-.039.009-.071.053-.105.081Z" transform="translate(0 0)"/>
        <path id="Trazado_136079" data-name="Trazado 136079" d="M7.693,18.131a1.033,1.033,0,0,0,.639-1.195,2.979,2.979,0,0,1,1.2-2.582.862.862,0,0,1,.48-.2,3.4,3.4,0,0,0,2.746-1.912,1.036,1.036,0,0,1,.685-.574,2.065,2.065,0,0,0,1.07-.847,7.976,7.976,0,0,0,1.5-2.914.969.969,0,0,1,.76-.748A31.046,31.046,0,0,0,21.17,5.675a6.06,6.06,0,0,0,1.515-.992A5.668,5.668,0,0,1,25.2,3.262a1.605,1.605,0,0,1,2.009.96,8.719,8.719,0,0,0-5.985,4.593,3.856,3.856,0,0,0-.456,1.453,2.571,2.571,0,0,0,1.378,2.722.864.864,0,0,1,.5.8,9.686,9.686,0,0,0,.054,1,3.324,3.324,0,0,0,2.452,2.723,13.108,13.108,0,0,0,3.5.728,2.99,2.99,0,0,1,2.485,1.491,3.074,3.074,0,0,0,2.847,1.5,14.7,14.7,0,0,1,2.241.194c.955.195,1.2.676.883,1.6-.216.624-.664,1.126-.9,1.738-.045.118-.131.119-.228.119H8.654c-.1,0-.191,0-.287-.007q.054-1.188.109-2.376c.078-.137.226-.169.352-.229a.76.76,0,0,0,.481-.752.777.777,0,0,0-.532-.768c-.115-.047-.247-.073-.315-.2a6.557,6.557,0,0,0-.43-1.927,1.013,1.013,0,0,0-.339-.5" transform="translate(-3.091 -1.288)" fill="#fec044"/>
        <path id="Trazado_136080" data-name="Trazado 136080" d="M8.361,32.215c.653.109.973.415.986.942.014.554-.294.872-.973,1.006-.623-.165-.928-.482-.932-.969s.3-.816.919-.979" transform="translate(-2.99 -12.945)" fill="#010101"/>
        <path id="Trazado_136081" data-name="Trazado 136081" d="M21.352,42.658c4.282,0,8.563,0,12.845-.009.372,0,.6.069.694.458a2.752,2.752,0,0,0,.222.528.659.659,0,0,1-.038.705,2.105,2.105,0,0,0-.046,1.894c.251.722.546,1.428.808,2.146.068.184.2.406-.013.569a.564.564,0,0,1-.638,0c-.483-.278-.949-.587-1.429-.872a2.821,2.821,0,0,0-2.821-.264,1.67,1.67,0,0,0-1.017,2.153c.09.355.217.7.309,1.055s.015.62-.4.719a2.372,2.372,0,0,0-1.247.669.516.516,0,0,1-.44.125q-7.789,0-15.577,0a2.537,2.537,0,0,1-.825-.218,10.1,10.1,0,0,0-1.521-.413,1.4,1.4,0,0,0-1.512.456c-.152.207-.269.1-.39,0-.513-.407-1.017-.824-1.529-1.231A5.014,5.014,0,0,0,4.344,49.9c-.4-.054-.611-.435-.851-.729-.1-.12.042-.2.1-.284a1.5,1.5,0,0,0,.247-1.141c-.056-.264.042-.367.273-.37a3.053,3.053,0,0,0,2.415-1.068,5.452,5.452,0,0,0,1.287-3.136c.039-.453.193-.528.6-.526,4.313.014,8.627.008,12.941.008" transform="translate(-1.39 -17.138)" fill="#60a3fe"/>
        <path id="Trazado_136082" data-name="Trazado 136082" d="M24.418,62.38h.489c3.675,0,7.35,0,11.025-.007.314,0,.49.055.572.392a4.773,4.773,0,0,0,.35.784,2.846,2.846,0,0,1,.094,2.406,8.316,8.316,0,0,0-.421,3.961,6.513,6.513,0,0,1-.018,1.719.8.8,0,0,1-.157.394c-.265.3-.534.261-.643-.121-.2-.7-.36-1.422-.565-2.125a3.241,3.241,0,0,0-4.258-2.466,10.309,10.309,0,0,1-1.742.3c-.8.051-1.07-.136-1.256-.9a1.269,1.269,0,0,0-1.061-.975.462.462,0,0,1-.416-.526c-.016-.867-.26-1.177-1.074-1.4-.182-.05-.273-.121-.294-.309a1.811,1.811,0,0,0-.626-1.126" transform="translate(-9.812 -25.064)" fill="#fe5a58"/>
      </g>
    </g>
  </g>
</svg>
