<svg xmlns="http://www.w3.org/2000/svg" xmlns:xlink="http://www.w3.org/1999/xlink" width="64.888" height="64.888" viewBox="0 0 64.888 64.888">
  <defs>
    <clipPath id="clip-path">
      <rect id="Rectángulo_38090" data-name="Rectángulo 38090" width="40.108" height="34.764" fill="none"/>
    </clipPath>
  </defs>
  <g id="_83" data-name="83" transform="translate(0 -0.002)">
    <circle id="Elipse_4823" data-name="Elipse 4823" cx="32.444" cy="32.444" r="32.444" transform="translate(0 0.002)" fill="#ff9fa3"/>
    <g id="Grupo_158986" data-name="Grupo 158986" transform="translate(12 15.002)">
      <g id="Grupo_158986-2" data-name="Grupo 158986" transform="translate(0 0)" clip-path="url(#clip-path)">
        <path id="Trazado_136083" data-name="Trazado 136083" d="M40.74,18.138l0,2a.438.438,0,0,1-.346-.113,2.839,2.839,0,0,0-1.625-.439q-5.345.012-10.69,0a2.265,2.265,0,0,0-2.583,2.554,1.071,1.071,0,0,1-.112.686,2.25,2.25,0,0,1-1.3.038c-.169-.105-.155-.281-.163-.445-.011-.208,0-.417-.006-.625a2.226,2.226,0,0,0-2.241-2.216q-.978-.019-1.957,0a2.228,2.228,0,0,0-2.252,2.248c-.014.346.128.725-.156,1.033a2.009,2.009,0,0,1-1.325-.056c-.223-.536-.223-.537-.851-.537H3.443c-.895,0-.93-.036-.93-.946q0-9.162,0-18.324c0-1,.051-1.048,1.07-1.049.473,0,.948-.024,1.419.007s.85-.019,1-.54H7.312c.151.521.54.541,1,.541q15.405-.017,30.81-.008c1.047,0,1.083.035,1.083,1.075q0,7.056-.008,14.111c0,.462.02.851.541,1" transform="translate(-1.308 -0.738)" fill="#eefafa"/>
        <path id="Trazado_136084" data-name="Trazado 136084" d="M66.875,51.741V53.05c-.493.14-.55.5-.556.954a1.145,1.145,0,0,1-1.194,1.188c-.528.027-1.058.009-1.587.009H54.479c-.195,0-.39.006-.584-.009a1.185,1.185,0,0,1-1.178-1.172c-.009-.111-.008-.223-.008-.334q0-5.3,0-10.605a3.329,3.329,0,0,1,.019-.459,1.175,1.175,0,0,1,1-1.027,3.114,3.114,0,0,1,.5-.025H64.8a3.577,3.577,0,0,1,.459.018,1.174,1.174,0,0,1,1.067,1.057,4.866,4.866,0,0,1,.019.626c0,2.492.01,4.983-.009,7.474,0,.464.023.849.545,1" transform="translate(-27.443 -21.644)" fill="#fcbe44"/>
        <path id="Trazado_136085" data-name="Trazado 136085" d="M4.695.678c-.035.669-.035.669-.722.669-.738,0-1.476.016-2.213-.007-.333-.01-.431.091-.427.425.017,1.475.007,2.951.007,4.427q0,7.392-.009,14.785c0,.347.08.429.427.428C5.837,21.391,9.916,21.4,14,21.4c.689,0,.689,0,.723.668.228.552.085.791-.509.8-1.127.015-2.254,0-3.381.005H2.4c-.139,0-.279-.009-.418,0-.171.016-.393-.046-.461.185a1.106,1.106,0,0,0,.023.737c.04.1.152.111.25.124a4.091,4.091,0,0,0,.542.016h11.4c.126,0,.251,0,.376,0,.659.01.735.09.723.757,0,.083.008.166,0,.249-.019.48-.11.583-.6.587-1.429.012-2.859,0-4.289,0-.627,0-.62,0-.357.548a3.68,3.68,0,0,1,.584,1.585c0,.245.19.277.382.281.5.009,1,0,1.5,0,.652,0,1.3,0,1.957,0,.78,0,.833.056.821.824.013.69-.059.771-.75.771q-5.592.005-11.185,0a3.033,3.033,0,0,0-.707.043.83.83,0,0,0-.428.246c-.165.179-.326.385-.219.63.094.217.341.145.525.145q5.822.007,11.645,0c.181,0,.362,0,.542,0,.555.027.689.258.467.8-.035.668-.035.668-.723.668H.925c-.714,0-.928-.206-.918-.914a5.532,5.532,0,0,1,.063-1.288,2.34,2.34,0,0,1,2.222-1.807h.083a2.1,2.1,0,0,0,.864-.028c.252-.128.044-.5.118-.755a2.454,2.454,0,0,1,.159-.384c.238-.483.48-.964.751-1.506H1.743A1.539,1.539,0,0,1,0,23.662Q0,12.7,0,1.736A1.529,1.529,0,0,1,1.717.011C2.552.01,3.388.033,4.222,0c.382-.014.526.094.461.47a.9.9,0,0,0,.012.208" transform="translate(0 0)"/>
        <path id="Trazado_136086" data-name="Trazado 136086" d="M65.42,50.433c-.669-.035-.669-.035-.669-.728q0-4.049,0-8.1c0-.845-.371-1.212-1.225-1.213H52.591c-.826,0-1.2.373-1.2,1.19q0,5.489,0,10.977a1.041,1.041,0,0,0,1.2,1.2q5.489,0,10.977,0c.813,0,1.186-.382,1.189-1.207v-.083c0-.693,0-.693.669-.727.668.035.668.035.668.721A2.374,2.374,0,0,1,63.466,55.1H52.58a2.352,2.352,0,0,1-2.53-2.516q-.006-3.754-.013-7.507a.536.536,0,0,1-.114-.346q-.018-.992,0-1.982a.54.54,0,0,1,.114-.347,11.434,11.434,0,0,1,.081-1.535,2.308,2.308,0,0,1,2.219-1.8q5.734-.015,11.468,0a2.484,2.484,0,0,1,1.614.673,2.84,2.84,0,0,1,.679,1.988c-.021,2.664-.008,5.329-.008,7.993,0,.684,0,.684-.668.719" transform="translate(-25.988 -20.335)"/>
        <path id="Trazado_136087" data-name="Trazado 136087" d="M45.954,17.412c-.669-.035-.669-.035-.669-.721,0-4.939-.006-9.877.01-14.815,0-.435-.127-.526-.54-.525Q29,1.367,13.247,1.36c-.686,0-.686,0-.721-.669.035-.668.035-.668.722-.668H44.857a1.541,1.541,0,0,1,1.764,1.76V16.69c0,.688,0,.688-.668.722" transform="translate(-6.522 -0.012)"/>
        <path id="Trazado_136088" data-name="Trazado 136088" d="M33.3,42.395a12.426,12.426,0,0,1,.071-1.492,2.328,2.328,0,0,1,2.264-1.846q1.02-.014,2.04,0a2.338,2.338,0,0,1,2.32,2.3c.009.347.011.693.015,1.04a.54.54,0,0,1,.113.347q.019.991,0,1.982a.538.538,0,0,1-.113.347q-.007,3.709-.013,7.418a2.37,2.37,0,0,1-2.606,2.606c-.583,0-1.167.008-1.751,0a2.342,2.342,0,0,1-2.327-2.34c-.005-.333-.009-.666-.014-1a.693.693,0,0,1-.117-.473c0-.734-.015-1.467.007-2.2q-.025-2,0-4c-.022-.735-.007-1.471-.008-2.206a.694.694,0,0,1,.118-.475" transform="translate(-17.276 -20.331)"/>
        <path id="Trazado_136089" data-name="Trazado 136089" d="M17.461,59.809v2.675H16.152c-.035-.669-.035-.669-.729-.669H3.2c-.456,0-.5-.051-.416-.5a1.021,1.021,0,0,1,1.042-.839c.6-.009,1.2,0,1.793,0h9.8c.694,0,.694,0,.729-.669a1.514,1.514,0,0,1,1.309,0" transform="translate(-1.433 -31.063)" fill="#31c9cf"/>
        <path id="Trazado_136090" data-name="Trazado 136090" d="M47.437,48.7V46.029h1.309V48.7H47.437" transform="translate(-24.699 -23.966)" fill="#31c9cf"/>
        <path id="Trazado_136091" data-name="Trazado 136091" d="M17.472,46.029V48.7a1.514,1.514,0,0,1-1.309,0c-.035-.669-.035-.669-.729-.669-4.048,0-8.095-.005-12.142.009-.4,0-.532-.1-.518-.508.03-.836.008-.837.852-.837H15.434c.695,0,.695,0,.729-.669h1.309" transform="translate(-1.444 -23.966)" fill="#31c9cf"/>
        <path id="Trazado_136092" data-name="Trazado 136092" d="M34.151,20.9a6.726,6.726,0,0,1,5.772,3.364c.152.249.2.421-.146.54-.285.1-.568.371-.824.339s-.321-.442-.49-.675a5.343,5.343,0,0,0-8.923.4c-.179.3-.324.359-.591.155a.879.879,0,0,0-.149-.075c-.7-.343-.707-.349-.283-.982a6.714,6.714,0,0,1,5.634-3.07" transform="translate(-14.699 -10.884)"/>
        <path id="Trazado_136093" data-name="Trazado 136093" d="M39.19,29.942c-.335.038-.3-.169-.342-.3a2.674,2.674,0,0,0-3.828-1.457,2.476,2.476,0,0,0-1.219,1.47c-.091.3-.229.327-.476.259a2.008,2.008,0,0,0-.487-.107c-.428-.008-.453-.189-.33-.552a4.015,4.015,0,0,1,7.646.089c.1.306.037.422-.283.453a5.4,5.4,0,0,0-.682.141" transform="translate(-16.893 -13.805)"/>
        <path id="Trazado_136094" data-name="Trazado 136094" d="M5.584,6.837V6.628c0-.861.165-1.028,1.014-1.028,1.006,0,1,0,1,1.015,0,.243-.039.374-.312.322s-.419.044-.363.348c.046.245-.036.37-.307.322a1.452,1.452,0,0,0-.25,0c-.779,0-.779,0-.779-.767" transform="translate(-2.907 -2.916)"/>
        <path id="Trazado_136095" data-name="Trazado 136095" d="M74.688,5.6c.167,0,.334-.006.5,0a.673.673,0,0,1,.7.713c0,.1,0,.2,0,.292,0,1.027,0,1.018-1.05,1-.243,0-.325-.078-.287-.305.045-.269-.025-.432-.34-.37-.285.056-.368-.082-.329-.341a1.44,1.44,0,0,0,0-.209c0-.787,0-.787.8-.787" transform="translate(-38.465 -2.913)"/>
        <path id="Trazado_136096" data-name="Trazado 136096" d="M6.809,39.655c-.139,0-.278,0-.418,0-.57-.006-.807-.243-.812-.813,0-.32.009-.64,0-.96-.008-.182.048-.249.233-.234a3.253,3.253,0,0,0,.584,0c.369-.038.619.012.528.485-.052.272.186.2.308.18.3-.036.408.071.357.363a1.21,1.21,0,0,0,0,.209c0,.772,0,.772-.775.772" transform="translate(-2.902 -19.596)"/>
        <path id="Trazado_136097" data-name="Trazado 136097" d="M39.759,34.819c-.624,0-.624,0-.624-.627,0-.71,0-.71.708-.71.631,0,.631,0,.631.627,0,.71,0,.71-.714.71" transform="translate(-20.376 -17.433)" fill="#020202"/>
        <path id="Trazado_136098" data-name="Trazado 136098" d="M59.869,50.207c.779,0,1.558.008,2.337-.005.232,0,.3.06.3.3.017,1.044.025,1.041-1.016,1.044-.317,0-.742-.1-.924.058-.216.192-.065.627-.068.955q-.014,1.67,0,3.339c0,.245-.045.331-.315.332-1.027,0-1.027.015-1.027-.992,0-1.127-.009-2.254.007-3.38,0-.264-.073-.331-.327-.32-.444.021-.891-.007-1.335.011-.253.01-.36-.036-.358-.33,0-1.011-.01-1.011,1.008-1.011h1.711" transform="translate(-29.756 -26.138)"/>
        <path id="Trazado_136099" data-name="Trazado 136099" d="M68.434,58.784a.713.713,0,0,1-.573-.308c-.61-.811-1.213-1.627-1.83-2.433-.128-.168-.083-.24.063-.359.835-.68.832-.684,1.472.169.234.312.474.618.7.938.125.178.2.174.329,0,.358-.5.738-.975,1.094-1.473.144-.2.239-.272.478-.089.8.615.81.6.2,1.412-.442.59-.887,1.177-1.325,1.769a.783.783,0,0,1-.608.374" transform="translate(-34.341 -28.701)"/>
        <path id="Trazado_136100" data-name="Trazado 136100" d="M54.38,43.877c0-.635,0-.635.66-.635.676,0,.676,0,.676.66,0,.677,0,.677-.66.677-.676,0-.676,0-.676-.7" transform="translate(-28.314 -22.515)"/>
        <path id="Trazado_136101" data-name="Trazado 136101" d="M78.023,43.947c0,.633,0,.633-.621.633-.715,0-.715,0-.715-.7,0-.633,0-.633.62-.633.716,0,.716,0,.716.7" transform="translate(-39.928 -22.515)"/>
        <path id="Trazado_136102" data-name="Trazado 136102" d="M55.716,66.221c0,.665,0,.665-.672.665s-.665,0-.665-.672,0-.665.672-.665.665,0,.665.672" transform="translate(-28.314 -34.129)"/>
        <path id="Trazado_136103" data-name="Trazado 136103" d="M77.363,65.549c.66,0,.66,0,.66.676,0,.66,0,.66-.677.66-.66,0-.66,0-.66-.676,0-.66,0-.66.676-.66" transform="translate(-39.928 -34.129)"/>
        <path id="Trazado_136104" data-name="Trazado 136104" d="M11.744,55.667c-.542,0-1.085-.025-1.625.009-.349.022-.406-.134-.36-.411a1.169,1.169,0,0,1,.1-.312c.275-.561.563-1.115.832-1.679a.412.412,0,0,1,.44-.287c.43.021.861.015,1.292,0a.361.361,0,0,1,.383.24c.282.588.588,1.164.87,1.752.249.521.14.684-.431.684h-1.5" transform="translate(-5.074 -27.588)" fill="#249b9e"/>
        <path id="Trazado_136105" data-name="Trazado 136105" d="M36.255,49.411v-.434q0-2.962,0-5.924c0-.826.373-1.2,1.188-1.206.584,0,1.168-.007,1.752,0A.992.992,0,0,1,40.26,42.88c.008,2.128,0,4.256,0,6.383,0,.022-.021.044-.047.1a2.777,2.777,0,0,0-1.972-.829,2.833,2.833,0,0,0-1.987.881" transform="translate(-18.876 -21.786)" fill="#fcbe44"/>
        <path id="Trazado_136106" data-name="Trazado 136106" d="M40.26,65.1c0,.476.015.862,0,1.247a.987.987,0,0,1-1,.969q-1,.023-2,0a.99.99,0,0,1-1-1.009c-.012-.372,0-.744,0-1.191a2.911,2.911,0,0,0,2,.866,2.827,2.827,0,0,0,2-.882" transform="translate(-18.873 -33.895)" fill="#fcbe44"/>
        <path id="Trazado_136107" data-name="Trazado 136107" d="M40.323,59.914a1.336,1.336,0,1,1-1.316-1.335,1.344,1.344,0,0,1,1.316,1.335" transform="translate(-19.603 -30.5)" fill="#fdeedb"/>
        <path id="Trazado_136108" data-name="Trazado 136108" d="M38.881,51.547h-.333c-1.046,0-1.13-.105-.975-1.16.023-.151.082-.178.21-.177.749,0,1.5,0,2.247,0,.151,0,.209.037.226.2.116,1.135.121,1.134-1,1.134Z" transform="translate(-19.532 -26.141)"/>
        <path id="Trazado_136109" data-name="Trazado 136109" d="M40.38,45.313c0,.66,0,.66-.676.66-.66,0-.66,0-.66-.677,0-.66,0-.66.676-.66.66,0,.66,0,.66.676" transform="translate(-20.329 -23.241)"/>
      </g>
    </g>
  </g>
</svg>
