<svg xmlns="http://www.w3.org/2000/svg" width="102" height="44" viewBox="0 0 102 44">
  <g id="Grupo_157012" data-name="Grupo 157012" transform="translate(-248.861 -112.813)">
    <path id="Unión_5" data-name="Unión 5" d="M0,44V0H80.2L102,22,80.2,44Z" transform="translate(248.861 112.813)" fill="#fc5f65"/>
    <path id="Trazado_131780" data-name="Trazado 131780" d="M-29.1,1.49a1.325,1.325,0,0,1-1.048-.382A1.482,1.482,0,0,1-30.487.092a1.194,1.194,0,0,1,.2-.653,1.791,1.791,0,0,1,.541-.534.466.466,0,0,0,.145-.185,1.669,1.669,0,0,0,.112-.3,2.14,2.14,0,0,0,.066-.349,1.264,1.264,0,0,0-.007-.343q-.092-.738-.138-1.549t-.059-1.608q-.013-.8-.013-1.556v-1.4q0-2.887.231-5.741t.6-5.372a1.334,1.334,0,0,1,.29-.626.826.826,0,0,1,.686-.3,1.753,1.753,0,0,1,.725.132.771.771,0,0,1,.369.277,1.84,1.84,0,0,1,.125.686q.033.527.033,1.3t-.033,1.727q-.033.956-.079,1.971t-.1,2.03q-.053,1.015-.1,1.912t-.079,1.615q-.033.719-.033,1.127v1.5q0,.534.007,1.134t.02,1.18a3.678,3.678,0,0,0,.171,1.074.611.611,0,0,0,.646.4,1.368,1.368,0,0,0,.3-.04q.633-.119,1.305-.2t1.285-.125q.613-.046,1.107-.059t.758-.013a2.242,2.242,0,0,1,.672.1,1.818,1.818,0,0,1,.56.283,1.335,1.335,0,0,1,.382.448,1.229,1.229,0,0,1,.138.58.786.786,0,0,1-.237.62,1.349,1.349,0,0,1-.58.3,3.5,3.5,0,0,1-.732.1q-.389.013-.692.04-.237.026-.771.092t-1.213.165q-.679.1-1.417.231t-1.371.29a9.031,9.031,0,0,0-1.088.336,1.061,1.061,0,0,0-.56.376.551.551,0,0,1-.336.25A1.48,1.48,0,0,1-29.1,1.49Zm17.2-9.664a4.268,4.268,0,0,1-.211,1.358,4.888,4.888,0,0,1-.56,1.16,4.986,4.986,0,0,1-.8.936,6.667,6.667,0,0,1-.9.7,4.877,4.877,0,0,1-.89.455,2.487,2.487,0,0,1-.765.178.629.629,0,0,0-.461.152.464.464,0,0,0-.119.31.812.812,0,0,0,.079.343,2.558,2.558,0,0,0,.145.277,1.549,1.549,0,0,0,.547.5,2.327,2.327,0,0,0,1.1.2,6.272,6.272,0,0,0,.89-.079,5.024,5.024,0,0,0,1.16-.336,6.479,6.479,0,0,0,1.312-.751,6.5,6.5,0,0,0,1.332-1.338.524.524,0,0,1,.2-.158.611.611,0,0,1,.277-.066.615.615,0,0,1,.475.3,1.962,1.962,0,0,1,.224,1.114,1.973,1.973,0,0,1-.264.982,3.382,3.382,0,0,1-.719.87A5.8,5.8,0,0,1-10.9-.343a7.983,7.983,0,0,1-1.279.56,9.3,9.3,0,0,1-1.4.356,8.169,8.169,0,0,1-1.4.125,5.532,5.532,0,0,1-2.09-.376A4.181,4.181,0,0,1-18.642-.765a4.871,4.871,0,0,1-.982-1.74,7.363,7.363,0,0,1-.343-2.333,10.293,10.293,0,0,1,.132-1.628,10,10,0,0,1,.4-1.608,8.092,8.092,0,0,1,.659-1.47,5.4,5.4,0,0,1,.929-1.2,4.13,4.13,0,0,1,1.206-.811,3.618,3.618,0,0,1,1.477-.3,3.124,3.124,0,0,1,1.562.356,3,3,0,0,1,1,.9,3.628,3.628,0,0,1,.541,1.193A5.042,5.042,0,0,1-11.9-8.174Zm-5.194,2.228q0,.053.007.145a.438.438,0,0,0,.053.178.4.4,0,0,0,.138.145.488.488,0,0,0,.264.059,1.461,1.461,0,0,0,.85-.336,4.13,4.13,0,0,0,.831-.831,5.265,5.265,0,0,0,.626-1.061,2.555,2.555,0,0,0,.25-1.015,1.736,1.736,0,0,0-.04-.349,1.591,1.591,0,0,0-.125-.369.826.826,0,0,0-.237-.3.612.612,0,0,0-.389-.119,1.117,1.117,0,0,0-.725.376,4.149,4.149,0,0,0-.725.949,6.755,6.755,0,0,0-.554,1.252A4.07,4.07,0,0,0-17.093-5.946Zm6.579-4.417v-.026a.35.35,0,0,1,.105-.244,1.132,1.132,0,0,1,.25-.2,1.571,1.571,0,0,1,.3-.138.893.893,0,0,1,.277-.053,1.067,1.067,0,0,1,.6.178,2.686,2.686,0,0,1,.481.4,2.41,2.41,0,0,1,.461.857q.224.62.435,1.4t.415,1.641q.2.857.389,1.562A11.2,11.2,0,0,0-6.434-3.81q.178.461.323.461t.3-.369a9.066,9.066,0,0,0,.369-.976q.2-.606.415-1.384t.448-1.589q.231-.811.475-1.589t.481-1.384a5.627,5.627,0,0,1,.475-.976q.237-.369.448-.369a1.516,1.516,0,0,1,.982.3,1.268,1.268,0,0,1,.376,1.042q-.079.343-.231,1.009t-.376,1.516q-.224.85-.5,1.826t-.6,1.945q-.323.969-.692,1.859A12.864,12.864,0,0,1-4.509-.91,5,5,0,0,1-5.339.185,1.264,1.264,0,0,1-6.2.593a1.184,1.184,0,0,1-.8-.369,4.485,4.485,0,0,1-.765-.989,10.307,10.307,0,0,1-.7-1.444q-.33-.824-.613-1.734t-.527-1.846q-.244-.936-.428-1.8t-.3-1.582Q-10.461-9.888-10.514-10.362ZM6.638-8.174a4.268,4.268,0,0,1-.211,1.358,4.888,4.888,0,0,1-.56,1.16,4.986,4.986,0,0,1-.8.936,6.667,6.667,0,0,1-.9.7,4.877,4.877,0,0,1-.89.455,2.487,2.487,0,0,1-.765.178.629.629,0,0,0-.461.152.464.464,0,0,0-.119.31.812.812,0,0,0,.079.343,2.558,2.558,0,0,0,.145.277,1.549,1.549,0,0,0,.547.5,2.327,2.327,0,0,0,1.1.2,6.272,6.272,0,0,0,.89-.079,5.024,5.024,0,0,0,1.16-.336,6.479,6.479,0,0,0,1.312-.751A6.5,6.5,0,0,0,8.5-4.113a.524.524,0,0,1,.2-.158.611.611,0,0,1,.277-.066.615.615,0,0,1,.475.3A1.962,1.962,0,0,1,9.67-2.927a1.973,1.973,0,0,1-.264.982,3.382,3.382,0,0,1-.719.87,5.8,5.8,0,0,1-1.055.732,7.983,7.983,0,0,1-1.279.56,9.3,9.3,0,0,1-1.4.356A8.169,8.169,0,0,1,3.553.7,5.532,5.532,0,0,1,1.463.323,4.181,4.181,0,0,1-.105-.765,4.871,4.871,0,0,1-1.088-2.5,7.363,7.363,0,0,1-1.43-4.838,10.293,10.293,0,0,1-1.3-6.467,10,10,0,0,1-.9-8.075a8.092,8.092,0,0,1,.659-1.47,5.4,5.4,0,0,1,.929-1.2,4.13,4.13,0,0,1,1.206-.811,3.618,3.618,0,0,1,1.477-.3,3.124,3.124,0,0,1,1.562.356,3,3,0,0,1,1,.9,3.628,3.628,0,0,1,.541,1.193A5.042,5.042,0,0,1,6.638-8.174ZM1.444-5.946q0,.053.007.145a.438.438,0,0,0,.053.178.4.4,0,0,0,.138.145.488.488,0,0,0,.264.059,1.461,1.461,0,0,0,.85-.336,4.13,4.13,0,0,0,.831-.831,5.265,5.265,0,0,0,.626-1.061,2.555,2.555,0,0,0,.25-1.015,1.736,1.736,0,0,0-.04-.349A1.591,1.591,0,0,0,4.3-9.38a.826.826,0,0,0-.237-.3A.612.612,0,0,0,3.672-9.8a1.117,1.117,0,0,0-.725.376,4.149,4.149,0,0,0-.725.949,6.755,6.755,0,0,0-.554,1.252A4.07,4.07,0,0,0,1.444-5.946Zm6.987-6.882q.026-.5.053-1.365t.086-1.859q.059-1,.152-2.024t.244-1.852a6.547,6.547,0,0,1,.376-1.351q.224-.527.541-.527a1.564,1.564,0,0,1,.409.066,1.786,1.786,0,0,1,.461.2,1.427,1.427,0,0,1,.4.369,1.136,1.136,0,0,1,.211.547,9.1,9.1,0,0,1,.013.962q-.013.751-.059,1.865t-.1,2.518q-.053,1.4-.1,2.92t-.073,3.059q-.026,1.542,0,2.953t.1,2.6a15.457,15.457,0,0,0,.231,2q.105.514.224.929a5.548,5.548,0,0,1,.165.745A1.182,1.182,0,0,1,11.72.5a.8.8,0,0,1-.4.409,1.17,1.17,0,0,1-.527.132,1.126,1.126,0,0,1-.653-.2A2.613,2.613,0,0,1,9.611.356a3.65,3.65,0,0,1-.382-.547q-.152-.27-.2-.389a5.127,5.127,0,0,1-.3-1.068q-.125-.672-.2-1.523T8.4-5q-.04-.976-.053-1.958T8.345-8.873q.007-.936.02-1.727T8.4-11.977Q8.418-12.564,8.431-12.828ZM20.006-16.8a1.9,1.9,0,0,1,.31-1.048,3.46,3.46,0,0,1,.817-.87,6.015,6.015,0,0,1,1.154-.686,9.613,9.613,0,0,1,1.325-.494,10.33,10.33,0,0,1,1.325-.3,7.677,7.677,0,0,1,1.147-.1,4.668,4.668,0,0,1,1.76.316,3.993,3.993,0,0,1,1.332.857,3.711,3.711,0,0,1,.837,1.252,3.945,3.945,0,0,1,.29,1.5,5.608,5.608,0,0,1-.323,1.806,12.453,12.453,0,0,1-.857,1.931,23.059,23.059,0,0,1-1.213,1.978q-.679,1-1.391,1.931T25.128-6.928q-.679.85-1.213,1.556T23.058-4.14a1.773,1.773,0,0,0-.323.817.4.4,0,0,0,.171.336,1.327,1.327,0,0,0,.442.2,3.389,3.389,0,0,0,.62.1q.349.026.705.026.435,0,.837-.02t.653-.02q.751,0,1.424.007t1.134.007a1.23,1.23,0,0,1,.58.125,1.075,1.075,0,0,1,.382.33,1.478,1.478,0,0,1,.218.468,2.079,2.079,0,0,1,.073.554.8.8,0,0,1-.171.534,1.707,1.707,0,0,1-.475.376,2.036,2.036,0,0,1-.633.178q-.448.073-1.048.112T26.341.04q-.705.013-1.417.013-.606,0-1.18-.007T22.682.026q-.488-.013-.857-.02T21.259,0a1.532,1.532,0,0,1-1.305-.508,2.122,2.122,0,0,1-.382-1.312,5.92,5.92,0,0,1,.29-1.806,10.784,10.784,0,0,1,.778-1.819,16.838,16.838,0,0,1,1.121-1.8q.633-.89,1.318-1.76t1.365-1.707q.679-.837,1.266-1.635t1.035-1.542a6.052,6.052,0,0,0,.646-1.43,4.436,4.436,0,0,0,.152-.778,2.1,2.1,0,0,0-.053-.784,1.132,1.132,0,0,0-.4-.6,1.357,1.357,0,0,0-.864-.237,3.005,3.005,0,0,0-.976.171,7.424,7.424,0,0,0-.989.422q-.488.25-.956.527t-.89.5a6.089,6.089,0,0,1-.811.363,2.155,2.155,0,0,1-.719.138.83.83,0,0,1-.639-.264A1.384,1.384,0,0,1,20.006-16.8Z" transform="translate(290.861 142.813)" fill="#fff"/>
  </g>
</svg>
